PathFileType	4	(X/Y/Z)	./resultDataOpenSim/trcMotMarkerGrf/sub06/qtm-04-07.trc
DataRate	CameraRate	NumFrames	NumMarkers	Units	OrigDataRate	OrigDataStartFrame	OrigNumFrames
250.000000	250.000000	6	24	m	250.000000	416	554
Frame#	Time	L.Toe.Tip			R.Toe.Tip			L.Ankle.Lat			R.Ankle.Lat			L.Ankle.Med			R.Ankle.Med			L.Heel			R.Heel			L.Knee.Lat			R.Knee.Lat			L.Knee.Med			R.Knee.Med			L.Thigh.Upper			R.Thigh.Upper			L.ASIS			R.ASIS			V.Sacral			L.Acromium			R.Acromium			C7			L.Elbow			R.Elbow			L.Wrist.Lat			R.Wrist.Lat
		X1	Y1	Z1	X2	Y2	Z2	X3	Y3	Z3	X4	Y4	Z4	X5	Y5	Z5	X6	Y6	Z6	X7	Y7	Z7	X8	Y8	Z8	X9	Y9	Z9	X10	Y10	Z10	X11	Y11	Z11	X12	Y12	Z12	X13	Y13	Z13	X14	Y14	Z14	X15	Y15	Z15	X16	Y16	Z16	X17	Y17	Z17	X18	Y18	Z18	X19	Y19	Z19	X20	Y20	Z20	X21	Y21	Z21	X22	Y22	Z22	X23	Y23	Z23	X24	Y24	Z24

416	1.66	1.4958896	0.11553603	-0.077214099	0.88816408	0.035028309	0.10979128	1.3694776	0.098545687	-0.095730439	0.7569966	0.073430248	0.1354283	1.3704124	0.11423295	-0.012478332	0.7800865	0.092052793	0.04849779	1.3153561	0.041657469	-0.049431397	0.69850153	0.059673415	0.077554789	1.2810678	0.45861514	-0.097491284	0.93739363	0.42379063	0.1609737	1.2780476	0.44855548	0.024889526	0.90825595	0.42535803	0.031929205	1.076232	0.79569425	-0.13040714	1.0092726	0.78193261	0.21706549	1.1375083	0.83903282	-0.075330643	1.1290564	0.8287807	0.17218079	0.94756351	0.90642507	0.045302984	1.0608554	1.3123193	-0.13564519	1.0994696	1.3044945	0.22404635	1.0073278	1.3496596	0.051595598	0.94500087	1.0202282	-0.18048039	1.0841861	0.98582838	0.31668039	1.0223709	0.79636055	-0.23533593	1.3186001	0.92296622	0.25656689
417	1.664	1.5074963	0.11793526	-0.077103595	0.88822706	0.035014771	0.1097724	1.3812714	0.098980885	-0.095947162	0.7575221	0.074289198	0.13551466	1.3807991	0.11410481	-0.012647152	0.78075027	0.092648785	0.048513326	1.3279345	0.041032501	-0.050253224	0.69883309	0.061082976	0.077702953	1.2879867	0.45729067	-0.096939697	0.94169349	0.42280513	0.16073103	1.2840872	0.44684842	0.025601564	0.91291918	0.42450679	0.031574881	1.0827881	0.79374748	-0.13078897	1.0147733	0.7804935	0.21637719	1.1441699	0.83727076	-0.075775079	1.135158	0.82703638	0.17188116	0.95391139	0.90471466	0.044771506	1.0665468	1.3105251	-0.13619537	1.1054529	1.3028674	0.22359578	1.0131719	1.3480299	0.051033673	0.95067917	1.0185474	-0.18080416	1.0903736	0.98408259	0.31626774	1.0269446	0.79442101	-0.23566586	1.3246485	0.92152537	0.25571849
418	1.668	1.5183752	0.11991002	-0.076983705	0.88829426	0.035001236	0.1097555	1.3923909	0.099302985	-0.096055152	0.75808154	0.075210617	0.13564773	1.3908199	0.11395597	-0.012719097	0.7814432	0.093319983	0.048572972	1.3396196	0.04055431	-0.051250488	0.69918955	0.062603014	0.077936614	1.2950604	0.4561583	-0.096426306	0.9461164	0.42180416	0.16049799	1.2901509	0.44523505	0.02629843	0.91762636	0.42362236	0.031303413	1.0893968	0.79182309	-0.13119241	1.0202264	0.77908188	0.21567309	1.1508677	0.83554545	-0.076236015	1.1413358	0.82530449	0.17154977	0.96029429	0.90304219	0.044156645	1.0723048	1.3087497	-0.13678012	1.111477	1.3012843	0.22310879	1.0190591	1.3464428	0.050433185	0.95643277	1.0168803	-0.18114105	1.0964977	0.98237252	0.31582477	1.0315789	0.79248486	-0.23600423	1.330617	0.9200121	0.25489448
419	1.672	1.5285337	0.12144634	-0.076867562	0.88836962	0.034991028	0.1097418	1.4028401	0.099466436	-0.096042013	0.75869185	0.07619937	0.13581869	1.4005415	0.11377462	-0.012694722	0.78216953	0.094075511	0.048678777	1.3505162	0.040043402	-0.051957389	0.69960734	0.0642374	0.078210248	1.3022648	0.45519353	-0.095946269	0.95066045	0.42079448	0.16027323	1.2962666	0.44373503	0.026968668	0.92239665	0.42270072	0.031096223	1.096065	0.7899364	-0.1316114	1.0259712	0.77759898	0.21495303	1.1575921	0.83385783	-0.076707285	1.1475956	0.82358883	0.17119006	0.96670283	0.90142166	0.043492771	1.0781311	1.3069999	-0.13740475	1.1175482	1.2997487	0.22258123	1.0249903	1.3448861	0.049796938	0.9622564	1.0152313	-0.18149076	1.1025727	0.98070818	0.31536248	1.0362826	0.79055973	-0.23634891	1.3365117	0.91843129	0.25408917
420	1.676	1.5380293	0.12250895	-0.076771072	0.88845612	0.034986463	0.10973507	1.4126325	0.099430374	-0.095908862	0.75937938	0.077258593	0.13602198	1.4098636	0.11349269	-0.012567839	0.78293901	0.094919308	0.048830397	1.3606904	0.039402387	-0.05219107	0.70012865	0.065990448	0.078462595	1.3095652	0.45436939	-0.095497767	0.95532622	0.41978136	0.16005881	1.3024615	0.44236739	0.027598817	0.92725995	0.42175012	0.030917953	1.1027986	0.78810206	-0.13203702	1.0319774	0.77605531	0.21425551	1.1643427	0.83220699	-0.077185039	1.1539203	0.82190123	0.17082075	0.97313812	0.89985637	0.042831455	1.0840251	1.305282	-0.13807398	1.1236646	1.2982523	0.22201773	1.0309631	1.3433511	0.049125675	0.96814361	1.0136015	-0.18185643	1.1085959	0.97909457	0.31487333	1.0410703	0.78865684	-0.23670514	1.3423387	0.91678286	0.25330646
421	1.68	1.5469267	0.12306035	-0.076687596	0.88855833	0.034989058	0.10973978	1.42179	0.099157965	-0.095662156	0.76017141	0.078397052	0.13625671	1.4186976	0.11304916	-0.012329169	0.78376743	0.09585231	0.049023219	1.3701568	0.03862397	-0.052050394	0.70076757	0.067866655	0.078670858	1.3169194	0.45364944	-0.095087115	0.9601169	0.41876816	0.15985919	1.3087518	0.44114239	0.028174487	0.93225352	0.42077786	0.030746627	1.1096044	0.78633025	-0.1324627	1.0379924	0.77453213	0.2136227	1.1711306	0.83058984	-0.077663931	1.1602841	0.82025429	0.17046922	0.97962204	0.89833677	0.04220293	1.0899884	1.3035957	-0.13878476	1.1298178	1.2967842	0.22142739	1.0369736	1.3418441	0.048416961	0.97409449	1.0119911	-0.18223637	1.1145497	0.97753034	0.31433919	1.0459527	0.78678562	-0.23708147	1.348101	0.91505969	0.25255576
